<?xml version="1.0" encoding="UTF-8"?>
<!-- Created with Inkscape (http://www.inkscape.org/) -->
<svg width="1114" height="589" version="1.1" viewBox="0 0 1114 589" xmlns="http://www.w3.org/2000/svg" xmlns:cc="http://creativecommons.org/ns#" xmlns:dc="http://purl.org/dc/elements/1.1/" xmlns:rdf="http://www.w3.org/1999/02/22-rdf-syntax-ns#">
 <metadata>
  <rdf:RDF>
   <cc:Work rdf:about="">
    <dc:format>image/svg+xml</dc:format>
    <dc:type rdf:resource="http://purl.org/dc/dcmitype/StillImage"/>
    <dc:title/>
   </cc:Work>
  </rdf:RDF>
 </metadata>
 <path d="m968.89 580.94c-10.209-5.1663-15.162-27.98-10.579-48.729 5.4124-24.503 6.7316-45.342 6.8685-108.5 0.10341-47.7-0.75373-62.168-4.3784-73.903-1.9242-6.2298-6.2115-11.588-9.2839-11.602-0.6453-3e-3 -2.8608-0.47422-4.9233-1.047-2.6263-0.72935-3.75-1.6022-3.75-2.9126 0-3.4535 1.2222-5.1075 5.3183-7.1972 5.6086-2.8613 12.63-2.0342 22.493 2.6497 13.069 6.2064 20.061 13.358 22.112 22.618 0.85076 3.8398 0.61746 6.2694-1.4033 14.615-3.1758 13.116-4.2378 22.094-5.1086 43.191l-0.71868 17.411 11.524-0.61759c42.788-2.2931 73.297 10.385 73.072 30.366-0.073 6.4657-2.3947 10.318-7.7937 12.932-7.7128 3.7337-12.749 1.9569-26.994-9.5238-18.621-15.007-46.762-30.617-49.77-27.609-0.5452 0.5452-0.37641 23.462 0.4218 57.269 0.73188 30.998 1.2704 59.545 1.1966 63.436-0.18374 9.6967-1.9369 17.39-5.0608 22.207-3.8111 5.8775-8.1774 7.5083-13.242 4.9455zm-824.46-2.2359c-3.7221-3.4495-6.363-9.8658-7.5734-18.4-1.1615-8.1898-0.8305-11.585 2.4949-25.593 1.3277-5.5925 2.8408-16.455 3.433-24.646 1.0008-13.843 1.498-51.854 0.67818-51.854-0.2094 0-4.1469 3.883-8.75 8.6289-30.163 31.099-61.951 53.494-93.996 66.223-12.83 5.0962-24.873 7.6136-24.873 5.1992 0-0.5219 3.0375-2.3974 6.75-4.1677 31.461-15.003 69.565-48.719 107.79-95.383 14.099-17.21 26.648-36.071 26.253-39.457-0.26635-2.2847-0.70337-2.5257-4.3104-2.3766-5.0819 0.21004-18.795 6.2099-37.954 16.605-14.417 7.8227-15.208 8.121-21.5 8.1037-14.849-0.0408-31.032-10.804-31.032-20.639 0-4.1322 2.3025-5.2325 7.009-3.3494 7.2215 2.8894 19.349 1.544 52.644-5.8405 22.302-4.9463 25.18-5.9387 30.847-10.636 4.9234-4.0808 5.0962-4.1366 11.274-3.6408 10.726 0.86086 29.008 10.963 30.556 16.885 0.58133 2.223-0.94004 3.9538-10.366 11.793-2.2802 1.8964-6.2016 6.3964-8.7142 10-2.5126 3.6037-7.7071 10.74-11.543 15.858l-6.9747 9.3056 2.5197 2.6944c3.8873 4.1569 6.0016 9.0574 5.426 12.577-2.5811 15.781-2.7775 20.846-2.4869 64.118 0.33719 50.211 0.14758 52.315-5.1953 57.658-3.7175 3.7175-8.6166 3.8496-12.409 0.33458zm433.41 1.265c0-0.89896 5.7254-4.2803 14.746-8.709 8.1104-3.9817 19.698-10.542 25.75-14.579 37.19-24.806 76.54-68.927 103.43-115.97 5.7774-10.107 6.818-13.093 5.3687-15.405-3.3125-5.2828-41.481 1.1034-77.294 12.933-8.525 2.8158-17.76 5.3638-20.522 5.6623-13.596 1.4691-39.164-11.274-43.468-21.664-2.8216-6.8119 3.3907-12.533 8.8262-8.1288 5.6304 4.5624 9.1425 5.489 22.375 5.9034 13.916 0.43587 27.343-0.7821 70.71-6.4143 27.089-3.518 27.515-3.6098 35.033-7.546l7.6112-3.9846 6.65 1.5422c14.843 3.4424 28.054 9.2955 31.237 13.84 3.533 5.044 1.4924 8.7874-8.4539 15.509-6.2207 4.2038-7.6991 6.0588-15.743 19.753-37.055 63.084-84.72 103.68-144.94 123.43-14.398 4.7234-21.319 5.9654-21.319 3.8257zm234.38-12.706c-8.2076-1.9594-19.818-10.124-22.916-16.116-2.2422-4.336-1.6894-14.935 0.77896-14.935 0.55669 0 2.7274 1.5496 4.8237 3.4435 6.901 6.2346 13.774 5.7717 29.159-1.9642 27.504-13.829 73.131-51.897 111.99-93.432 5.8926-6.2991 11.009-11.157 11.37-10.796 0.92083 0.92083-5.4037 13.062-12.105 23.238-23.268 35.333-57.776 69.638-95.856 95.294-7.0823 4.7716-13.521 9.6588-14.309 10.861-1.3611 2.0773-7.1551 5.4732-8.9657 5.2549-0.46688-0.0563-2.2517-0.43725-3.9662-0.84657zm-596.38-22.987c0-0.51467 3.2625-3.6231 7.25-6.9076 19.31-15.906 36.096-37.976 49.715-65.367 10.376-20.868 16.035-38.436 16.035-49.78 0-9.4628-5.7493-15.495-14-14.689-5.9763 0.58384-7 0.072-7-3.5001 0-13.04 23.448-15.865 39.577-4.7682 11.41 7.8505 11.939 18.321 2.3042 45.627-12.022 34.07-39.011 67.637-72.381 90.021-11.097 7.4438-21.5 11.974-21.5 9.3627zm213.5-8.4664c-13.897-4.4064-25.5-14.503-25.5-22.189 0-1.81 0.43774-3.5615 0.97276-3.8921 0.53502-0.33066 3.352 0.52437 6.26 1.9001 2.908 1.3757 7.7577 3.0332 10.777 3.6834 7.5304 1.6215 41.832 0.66387 94.49-2.638 57.639-3.6142 69.369-2.753 71.918 5.2802 0.53602 1.6889 0.0658 2.8312-1.925 4.6762-5.787 5.3632-8.8644 5.763-50.993 6.6252-21.45 0.43895-42.6 1.0809-47 1.4265-15.884 1.2477-28.167 2.7921-36.929 4.6432-10.226 2.1603-16.361 2.2949-22.071 0.48432zm1.4189-43.874c-4.444-2.9948-7.9807-8.532-11.321-17.724-8.1332-22.383-27.14-50.38-50.914-74.995-5.876-6.0838-10.684-11.472-10.684-11.974 0-2.263 2.4098-1.6713 11.625 2.8543 17.03 8.3632 39.876 24.417 53.132 37.335 3.4415 3.354 6.4612 5.914 6.7104 5.6888s97.116-97.047 215.26-215.16c213.81-213.76 214.82-214.75 218.79-214.75h3.9823l-216.95 216.95c-215.23 215.23-216.94 216.97-215.58 219.5 0.75124 1.4037 1.8527 2.5522 2.4478 2.5522s99.856-98.775 220.58-219.5c218.83-218.83 219.51-219.5 223.5-219.5h4l-221.75 221.75c-121.96 121.96-221.73 222.43-221.72 223.25 0.0175 0.82454 0.70353 2.3878 1.5245 3.4738 1.4169 1.8744 12.933-9.4652 226.72-223.25 224.53-224.53 225.24-225.22 229.22-225.22h3.9984l-455.74 455.75 1.7968 5.3767c0.98823 2.9572 1.7756 8.0948 1.7498 11.417-0.11028 14.178-10.784 22.653-20.383 16.184zm-206.92-1.6659c-1.925-1.0192-6.5901-5.474-10.367-9.8994-10.548-12.359-21.855-22.169-38.383-33.3-5.6375-3.7968-10.25-7.3433-10.25-7.881 0-2.2689 20.991 0.14922 35 4.0321 11.248 3.1174 26.817 11.056 33.296 16.978 7.022 6.4177 9.7042 11.788 9.7042 19.428 0 5.2449-0.31707 6.1014-3.4 9.1843-2.8484 2.8484-4.1057 3.3928-7.75 3.3558-2.3925-0.0243-5.925-0.87812-7.85-1.8974zm598-13.77c-0.825-0.30427-4.5092-3.2026-8.1871-6.4408-8.8783-7.8168-18.081-13.763-29.439-19.023-5.1364-2.3786-9.2012-4.7615-9.0329-5.2953 0.59837-1.8976 8.3399-2.6927 21.159-2.1732 18.243 0.73926 28.536 3.9589 35.445 11.087 9.4598 9.76 1.9593 26.236-9.9449 21.846zm241.7-78.312c-1.5412-0.45724-7.2591-5.1092-12.706-10.338-5.8124-5.5789-13.458-11.678-18.507-14.763-4.7312-2.8912-8.8279-5.6218-9.1037-6.068-2.1999-3.5594 22.562-3.5161 33.706 0.0589 7.8058 2.5042 12.133 5.2735 16.268 10.412 2.5287 3.1422 3.0493 4.6956 3.0928 9.2288 0.046 4.7758-0.3191 5.8122-2.9476 8.3704-3.5503 3.4553-5.9956 4.2284-9.8022 3.099zm-648.03-9.8194c-8.412-7.9746-15.639-13.486-23.305-17.773-3.5479-1.9841-6.2844-4.1064-6.0812-4.7161 1.1686-3.5058 22.379-3.2617 32.223 0.37082 11.32 4.1773 16.49 9.8985 16.496 18.257 5e-3 6.396-3.0761 9.7046-9.0374 9.7046-3.668 0-4.8242-0.65615-10.295-5.843zm214.57-3.7074c-9.2981-2.5033-14.266-5.6837-16.933-10.841-2.389-4.6197-1.766-12.831 1.0555-13.914 0.70233-0.26951 3.6473 1.0045 6.5444 2.8312 10.504 6.6227 25.269 6.7858 55.603 0.6141 11.204-2.2796 15.697-3.7242 22.5-7.2343 8.0821-4.1702 8.9179-4.3858 17-4.3864 10.054-6.6e-4 16.705 2.1532 20.472 6.6292 3.7404 4.4452 3.4165 8.8646-0.92936 12.68-3.7264 3.2718-4.4596 3.434-23.542 5.2072-6.325 0.58776-23.512 3.0701-38.193 5.5163-28.31 4.717-35.132 5.1706-43.576 2.8972zm467.27-3.6372c-1.1-0.61975-5.1849-4.131-9.0775-7.8029-8.1711-7.7076-14.193-12.088-23.386-17.01-3.5953-1.925-6.537-3.95-6.537-4.5 0-1.7329 6.7324-3.3852 14-3.436 10.806-0.0755 19.314 1.644 27.236 5.5047 8.7445 4.2617 12.264 9.1031 12.264 16.869 0 4.0824-0.4853 5.2474-3.4 8.1621-3.5967 3.5967-7.3243 4.3396-11.1 2.2124zm-646-6.9869c-1.1-0.61256-4.925-3.889-8.5-7.2809-7.2793-6.9066-12.551-10.667-21.799-15.55-5.5415-2.9258-6.1222-3.5024-4.8291-4.7955 1.0017-1.0017 4.4409-1.6185 10.799-1.9366 15.068-0.75401 27.285 2.9362 33.624 10.157 5.2607 5.9916 5.4769 13.57 0.51817 18.166-2.7808 2.5772-6.5559 3.0543-9.8135 1.2402zm-292-12.219c-1.65-0.72335-6.4492-3.7943-10.665-6.8244-12.897-9.27-28.82-16.869-45.585-21.754-6.7592-1.9697-8.4702-3.1558-6.3987-4.4361 0.46823-0.28938 7.1004-1.0252 14.738-1.635 20.958-1.6735 43.662 1.0995 54.782 6.6905 5.0438 2.536 10.588 8.4889 11.679 12.539 3.0796 11.437-7.5261 20.253-18.55 15.42zm176.75-20.753c-0.84692-0.84692-0.99011-13.524-0.54785-48.5 0.32932-26.044 0.32939-47.353 1.5e-4 -47.353s-5.951 6.1875-12.493 13.75-15.631 17.264-20.198 21.558c-19.995 18.801-53.292 38.336-86.015 50.465-14.881 5.5156-23.6 7.9606-24.649 6.912-0.91206-0.91206-1.7816-0.4089 14.763-8.5432 27.126-13.337 53.424-32.708 78.958-58.161 12.38-12.341 33.827-37.373 37.039-43.23 0.90317-1.6472-0.63016-1.75-26.1-1.75h-27.06l-0.86049 2.25c-1.5264 3.9913-4.8186 6.063-10.366 6.523-4.1749 0.34621-5.7449 0.0304-7.6936-1.5475l-2.4483-1.9825 1.2164-14.871c2.1405-26.17 1.194-53.421-2.4182-69.621-0.41431-1.8582-0.20854-2.75 0.63454-2.75 1.8071 0 19.649 7.9055 25.305 11.213l4.8198 2.8179 57.36-0.53044 0.54512-36.5-27.773 0.0386c-25.585 0.0356-46.4 0.72982-76.423 2.5489l-11.651 0.70592-5.0577-5.0577c-4.3571-4.3571-7.2368-9.4812-6.0106-10.695 0.20356-0.20157 4.1951 0.0324 8.8701 0.51995 17.945 1.8714 43.899 3.0472 80.25 3.6354l37.75 0.61088v-13.653c0-8.2467-0.38794-13.653-0.97968-13.653-0.53882 0-1.8691 1.7434-2.9562 3.8742-3.251 6.3724-7.3216 9.1258-13.492 9.1258-6.3794 0-11.272-1.5692-12.594-4.0394-1.9143-3.5769-1.221-4.2383 3.9243-3.7439 7.4803 0.71876 10.348-2.072 6.4988-6.3249-3.6448-4.0275 2.0604-5.227 8.7146-1.8323 4.7501 2.4233 7.6323 2.2308 9.5258-0.63637 1.2378-1.8743 1.0218-2.5259-2.2142-6.6794-2.3394-3.0027-3.4633-5.4092-3.2333-6.9231 0.34421-2.2657 0.64229-2.3295 5.0551-1.082 1.4866 0.42026 1.75-0.20481 1.75-4.1533 0-5.0091 1.8214-6.8268 4.8859-4.8762 1.1781 0.74986 1.5197 2.1801 1.2648 5.2947-0.37385 4.5679-0.45465 4.5279 5.8255 2.8829 2.9414-0.77046 2.1309 3.6281-1.4364 7.7957-3.6785 4.2975-4.3895 7.068-2.3399 9.1176 1.761 1.761 3.7256 1.4831 9.2195-1.3042 5.3109-2.6944 6.3866-2.9054 8.3771-1.6427 1.0353 0.65675 0.94288 1.4388-0.45866 3.8808-1.4734 2.5672-1.5422 3.3151-0.42841 4.657 1.0502 1.2654 2.4489 1.4668 6.7087 0.96619 4.3455-0.51072 5.3818-0.35073 5.3818 0.83084 0 4.3962-10.427 8.4073-17.631 6.7825-4.2967-0.96907-6.9809-3.2927-9.4959-8.2205-1.0527-2.0625-2.3548-3.75-2.8936-3.75-0.59119 0-0.97968 5.3534-0.97968 13.5v13.5l40.25-0.0153c22.138-8e-3 40.723-0.34592 41.302-0.75s4.095-4.8367 7.8146-9.8503c8.6338-11.637 10.14-12.506 16.413-9.4682 9.1661 4.4389 21.219 15.598 24.409 22.597 2.5408 5.5764 3.63 5.4864-66.379 5.4864l-63.809-1e-5v37h63.575l4.9248-5c3.1097-3.1572 5.7826-5 7.2522-5 4.5315 0 20.873 9.9723 23.892 14.58 2.2145 3.3797 0.64536 6.7213-4.3543 9.273-2.0845 1.0639-4.5187 2.7697-5.4093 3.7907-2.3659 2.7124-3.0282 12.896-1.844 28.356 1.731 22.599 1.6794 23.738-1.2062 26.624-2.7211 2.7211-8.8641 4.0864-13.336 2.964-1.7395-0.43659-3.1151-1.829-4.0738-4.1236l-1.4475-3.4644h-59.044l1.1572 2.1623c2.1738 4.0617 29.392 30.473 40.102 38.914 26.516 20.897 57.024 35.904 85.802 42.206 5.5691 1.2197 10.212 2.6539 10.317 3.1872 0.10544 0.53329-3.4083 2.2524-7.8083 3.8203-14.586 5.1976-18.73 7.0228-23.689 10.434-5.6472 3.8846-5.8059 3.8671-16.811-1.852-13.638-7.0872-35.149-23.687-52.5-40.515-4.95-4.8006-13.95-13-20-18.221s-14.223-12.358-18.163-15.859c-4.4142-3.9232-7.4237-5.9448-7.842-5.2681-0.37331 0.60404-0.53976 22.112-0.36988 47.795 0.16988 25.683-0.0403 47.259-0.46704 47.947-0.96905 1.5612-2.9014 1.6065-4.4045 0.10338zm-0.4865-149.1 0.26688-25.75-29.767 4e-3c-27.415 3e-3 -30.012 0.15293-32.863 1.8918-2.7744 1.6918-3.1642 2.5381-3.75 8.143-0.35958 3.4399-0.65377 14.295-0.65377 24.121v17.867l66.5-0.52696zm75.001 1.9682c0.1721-15.262-0.10921-24.487-0.78518-25.75-1.0154-1.8973-2.2567-1.9682-34.469-1.9682h-33.416l-0.29888 25.25c-0.16438 13.888-0.15619 25.593 0.0182 26.013 0.1744 0.41968 15.699 0.64468 34.5 0.5l34.183-0.26305zm380.23 118.85c0-0.23765-2.9213-10.25-6.4918-22.25-3.5705-12-7.2278-24.359-8.1273-27.465-1.19-4.1094-2.297-5.9489-4.0646-6.7542-4.418-2.013-1.3555-3.0983 8.7427-3.0983 7.965 0 9.941 0.28495 9.941 1.4336 0 0.82053-1.176 1.5689-2.75 1.75-2.5122 0.28906-2.7437 0.66845-2.6769 4.3875 0.0811 4.5159 8.4041 36.429 9.5008 36.429 0.38105 0 0.91681-0.7875 1.1906-1.75 0.27376-0.9625 2.5495-8.5 5.0571-16.75 5.6464-18.576 5.9235-20.656 2.9284-21.98-1.2375-0.54701-2.25-1.5629-2.25-2.2574 0-0.91811 2.3205-1.2629 8.5-1.2629 8.5695 0 10.888 1.1416 6.0523 2.9801-1.3462 0.51183-3.229 2.1231-4.184 3.5805s-5.4726 13.661-10.039 27.119-8.5604 24.886-8.875 25.395c-0.57325 0.92754-2.4541 1.3059-2.4541 0.49365zm-112-2.1544c0-0.80466 1.0589-1.8656 2.353-2.3576 3.1142-1.184 3.647-5.3434 3.647-28.473 0-19.611-0.49029-21.678-5.6009-23.621-4.8346-1.8381-2.5473-3.0515 5.1911-2.7537l7.5901 0.29206 12.864 19.985c7.075 10.992 13.392 20.161 14.039 20.376 0.88161 0.29387 1.0668-3.9922 0.74102-17.147-0.45251-18.271-1.0357-20.713-4.9462-20.713-1.0327 0-1.8776-0.675-1.8776-1.5 0-1.2 1.5-1.5 7.5-1.5 5.719 0 7.5 0.32851 7.5 1.3834 0 0.76085-0.83137 1.6008-1.8475 1.8665-2.6986 0.7057-3.129 5.1002-3.1415 32.073-0.0102 22.142-0.13451 23.801-1.761 23.5-0.99603-0.18402-8.428-10.31-17.25-23.503l-15.5-23.18-0.29389 17.68c-0.35313 21.243 0.0123 23.932 3.429 25.231 4.6453 1.7661 2.133 3.4373-5.4675 3.6369-5.7098 0.14998-7.1676-0.10929-7.1676-1.2748zm51.354 0.35083c-0.8136-1.3164 0.70382-2.5358 3.6456-2.9297 2.4999-0.33467 2.5-0.33517 2.7503-12.835 0.13765-6.875-0.0874-18.331-0.5-25.457-0.7197-12.429-0.84435-12.979-3.0593-13.5-1.27-0.2985-2.2825-0.99272-2.25-1.5427 0.037-0.62689 6.6817-1 17.809-1h17.75l1.6291 6.5c0.89598 3.575 1.4007 6.888 1.1217 7.3622-0.27907 0.47419-2.843-1.7493-5.6977-4.9411l-5.1904-5.8032-13.363-0.85087v11.557c0 7.0958 0.41109 11.812 1.0649 12.216 0.58568 0.36198 2.6584 0.35919 4.6061-6e-3 2.9499-0.55341 3.7992-1.3213 5.0868-4.5991 0.8501-2.1641 1.8826-3.9348 2.2944-3.9348 0.99949 0 1.7823 18.256 0.83109 19.381-0.40949 0.48435-1.5643-0.86565-2.5662-3-1.698-3.617-2.1442-3.9013-6.5694-4.1854l-4.7476-0.30498v9.9897c0 13.072 0.68721 14.803 6.199 15.617 6.485 0.95803 11.574-1.159 15.619-6.4976 1.8751-2.475 3.8754-4.6724 4.445-4.883 1.3264-0.49056 0.21771 6.7979-1.7507 11.509l-1.4332 3.4302-18.572-0.17662c-10.282-0.0978-18.831-0.59557-19.152-1.1152zm91.214 0.34693c-0.68952-1.1157 1.3156-2.7819 3.9312-3.2668 1.9223-0.35636 2.0104-1.2689 2.2682-23.495 0.28211-24.327-0.24903-28.35-3.7434-28.35-1.1331 0-2.0248-0.66055-2.0248-1.5 0-1.2775 2.6578-1.5 17.92-1.5h17.92l1.6208 7.126c0.89143 3.9193 1.3788 7.368 1.0831 7.6638-0.29575 0.29574-3.1364-2.236-6.3126-5.626l-5.7749-6.1638h-12.519l0.28173 11.75 0.28174 11.75 2.8146 0.32266c3.8124 0.43704 7.3675-2.0988 8.1896-5.8418 1.2522-5.7012 2.6437-2.5071 2.9632 6.8018 0.32945 9.5997-0.74175 12.597-2.5984 7.2712-1.3005-3.7305-3.5103-5.0539-8.4391-5.0539h-3.7017l0.71099 11.75c0.39105 6.4625 1.0881 12.138 1.549 12.613 0.46089 0.47466 2.8032 1.0845 5.2051 1.3553 6.1952 0.69829 11.088-1.6401 14.978-7.1582 4.8396-6.8659 5.919-5.9147 3.6849 3.2471-0.62938 2.581-1.5669 5.2341-2.0833 5.8956-1.1228 1.4383-37.328 1.8254-38.204 0.40845zm42.617-0.85688c0.18392-0.96492 1.3498-1.8992 2.5909-2.0761l2.2565-0.32175-0.26673-25.678-0.26674-25.678-2.25-0.31955c-1.2375-0.17575-2.25-0.96325-2.25-1.75 0-2.0447 24.876-2.0667 28.8-0.0255 5.521 2.8726 7.5808 6.1913 7.9926 12.877 0.32475 5.2728 0.0231 6.7474-1.9847 9.7031-2.0367 2.9983-4.7528 5.0862-8.1836 6.291-0.48181 0.16919 0.47997 2.3137 2.1373 4.7656s4.6887 7.5449 6.7364 11.318c2.2218 4.0937 4.8858 7.5212 6.6064 8.5 5.0492 2.8722 3.6906 4.2664-3.8355 3.9358l-6.7314-0.29565-5.6403-11.5c-5.9187-12.068-8.7316-15.661-11.444-14.62-1.3571 0.52075-1.5752 2.0517-1.335 9.3713 0.38638 11.775 0.70121 13.081 3.2385 13.443 1.1792 0.16812 2.1441 0.98067 2.1441 1.8057 0 1.2079-1.8158 1.5495-9.3242 1.7544-8.4253 0.22988-9.2919 0.0853-8.9898-1.5zm20.324-28.694c4.8092-2.0094 7.4814-6.7963 7.486-13.41 3e-3 -4.7534-0.37542-5.7292-3.3963-8.75-2.6074-2.6074-4.2392-3.4-7-3.4h-3.6v12.833c0 7.0583 0.3 13.133 0.66667 13.5 0.97072 0.97072 1.9938 0.83535 5.8436-0.77315zm27.99 29.44c-0.99614-1.6118 0.4272-3 3.0759-3h2.4579l-0.53376-51.5-2.25-0.31955c-1.2375-0.17575-2.25-0.96325-2.25-1.75 0-1.1452 1.9939-1.4304 10-1.4304 8.0163 0 10 0.28438 10 1.4336 0 0.82053-1.176 1.5689-2.75 1.75l-2.75 0.31642-0.53376 51.5h7.8426c9.0317 0 10.527-0.9842 14.236-9.3687 3.0706-6.9416 4.3611-4.6923 2.4689 4.3031-0.84315 4.0082-1.7802 7.6877-2.0824 8.1766-0.77321 1.2511-36.155 1.1447-36.931-0.11103zm41.025 0.0405c-0.92604-1.4983 0.29708-3.0405 2.4115-3.0405 1.0002 0 2.2635-0.5625 2.8073-1.25 1.8779-2.3742 15.25-45.485 15.264-49.211 5e-3 -1.3343 1.4181-2.845 4.0868-4.3693 2.2435-1.2814 4.2225-2.1814 4.3976-2 0.17517 0.1814 3.3266 11.579 7.0033 25.328 7.864 29.408 8.5338 31.227 11.66 31.672 1.2784 0.18186 2.4587 1.036 2.6228 1.898 0.2538 1.3333-1.2002 1.5831-9.7398 1.6728-9.2736 0.0974-10.038-0.041-10.038-1.8173 0-1.2899 0.69493-1.9228 2.1113-1.9228 1.8958 0 2.0408-0.3828 1.421-3.75-0.37967-2.0625-1.4035-6.3375-2.2752-9.5l-1.5849-5.75h-7.3575c-8.3974 0-8.0547-0.34384-10.85 10.887-1.6405 6.5901-1.3764 7.664 2.0358 8.2795 1.1 0.19842 2 1.0296 2 1.8471 0 1.1605-1.6802 1.55-7.6659 1.7768-4.5501 0.17246-7.9273-0.13238-8.309-0.75zm28.166-25.823c0.89334-0.57212 0.54648-3.3785-1.3893-11.24-1.4189-5.7627-2.9017-10.84-3.2951-11.282-0.85713-0.96412-7.3946 20.867-6.6228 22.116 0.67963 1.0997 9.7175 1.4246 11.307 0.40647zm26.309 24.826c0-1.3855 0.6522-2.0438 2.0247-2.0438 3.3481 0 3.9753-4.0259 3.9753-25.518 0-22.275-0.4905-24.76-5.2128-26.406-4.703-1.6395-2.2383-3.0756 5.2784-3.0756h6.9475l4.6153 7.25c12.894 20.255 20.869 32.4 22.16 33.75 1.2491 1.3051 1.3726-0.87048 0.9508-16.744-0.5021-18.898-1.0416-21.256-4.8621-21.256-1.0327 0-1.8776-0.675-1.8776-1.5 0-1.2 1.5-1.5 7.5-1.5 5.719 0 7.5 0.32851 7.5 1.3834 0 0.76085-0.8302 1.6005-1.8448 1.8658-2.5761 0.67367-3.136 6.6477-3.1465 33.574-0.01 20.714-0.1348 22.3-1.7587 22-1.0026-0.18524-8.1559-10.015-16.75-23.018-8.25-12.482-15.338-22.72-15.75-22.75-0.8996-0.066-0.9909 35.444-0.1 38.772 0.3427 1.2797 1.7232 2.745 3.0677 3.2562 4.5175 1.7176 1.9997 3.4017-5.548 3.7109-6.6504 0.27252-7.17 0.1457-7.17-1.75zm53.405 0.80278c-0.8937-1.446 0.6054-2.8466 3.0468-2.8466 1.2837 0 2.6072-0.7118 2.941-1.5818 0.8692-2.265 0.7226-47.689-0.1583-49.067-0.4041-0.63206-1.8245-1.3071-3.1564-1.5-1.3319-0.19295-2.6069-0.91332-2.8333-1.6008-0.646-1.9614 28.003-1.7257 33.886 0.27889 10.284 3.5042 16.077 12.936 16.256 26.471 0.1829 13.779-4.4695 23.351-13.734 28.258-3.7377 1.9796-5.7329 2.2116-19.939 2.3176-8.6822 0.0648-16.021-0.26316-16.309-0.72878zm29.726-4.4311c6.758-3.4515 10.869-12.741 10.869-24.559 0-15.319-8.843-26.494-20.306-25.661l-4.1938 0.30475v49.941l2.5 1.2778c2.6895 1.3746 6.8389 0.88878 11.131-1.3032zm-1004.1 1.5994c-2.168-2.168-2.2047-2.6002-1.6027-18.867 0.33887-9.1564 0.88198-21.756 1.2069-27.999l0.59077-11.351-2.3549 0.70895c-5.7642 1.7353-7.0445 3.1183-11.102 11.992-2.2632 4.95-6.2959 12.704-8.9616 17.231-5.5935 9.4994-14.98 21.204-15.574 19.421-0.22267-0.66802 0.80196-4.2292 2.277-7.9136 4.3251-10.804 9.5248-32.713 10.199-42.972 0.33734-5.1355 0.95812-9.5503 1.3795-9.8108 1.1343-0.70103 15.913 4.1966 19.702 6.5291 1.8008 1.1086 3.4883 2.0157 3.75 2.0157 0.26171 0 0.47583-4.95 0.47583-11 0-10.499-0.09537-11-2.0948-11-2.8184 0-15.631 3.7756-19.579 5.7695-4.1142 2.0779-5.2128 1.1806-9.8132-8.0151-5.3162-10.627-5.5816-10.312 8.3724-9.9233l11.889 0.33118 6.5049-10.831c12.076-20.108 22.697-42.788 22.736-48.549 0.0313-4.6708 1.2464-5.0836 7.2055-2.4482 14.251 6.3024 20.657 12.795 14.029 14.218-5.2543 1.128-6.2242 2.0266-17.676 16.376-6.3334 7.9356-14.73 17.971-18.659 22.302-3.9292 4.3304-6.8947 8.1227-6.5901 8.4274 0.30465 0.30465 6.692 0.22515 14.194-0.17666 9.5074-0.50921 13.787-1.1136 14.125-1.9947 0.2668-0.69527-0.96657-4.2414-2.7408-7.8803-1.7742-3.6389-2.9656-6.8764-2.6475-7.1946 0.98144-0.98143 9.8698 3.4429 15.584 7.7573 6.3066 4.7616 5.2376 5.5507 11.743-8.6686 8.8143-19.267 15.489-40.53 17.421-55.5 0.6745-5.225 1.383-10.056 1.5744-10.735 0.25038-0.88835 2.8144-0.36964 9.1352 1.8481 10.795 3.7877 16.077 6.6497 16.868 9.1403 0.74621 2.3511 0.47972 2.6178-4.2343 4.2384-3.4916 1.2004-4.2723 2.2357-9.5446 12.658-3.158 6.2427-5.7553 11.688-5.7717 12.1-0.0164 0.4125 9.8777 0.75 21.987 0.75h22.017l4.3402-4.5296c3.939-4.1109 4.5866-4.4359 7.0062-3.516 7.6048 2.8913 19.248 12.661 18.339 15.388-0.19995 0.59984-2.3425 2.4841-4.7612 4.1871-2.4187 1.7031-4.7039 4.1932-5.0782 5.5335-0.37428 1.3403-0.72538 13.496-0.7802 27.013-0.1551 38.241-2.3622 53.807-9.7707 68.911-6.7822 13.827-19.785 23.519-33.182 24.733l-5.8495 0.53041-5.399-4.8831c-2.9695-2.6857-9.5615-7.5074-14.649-10.715-8.5344-5.3805-11.86-8.6162-7.4024-7.2013 5.5854 1.7728 18.368 3.5484 25.544 3.5484 6.8009 0 9.0965-0.43892 13.331-2.5489 15.422-7.685 20.733-29.88 20.088-83.951l-0.3101-26-49.431-0.53479-1.719 2.7674c-6.8055 10.956-11.726 17.796-17.622 24.497-6.49 7.3753-6.7334 7.8331-5.3152 10 2.6528 4.0534 2.9263 9.877 0.63599 13.541-5.5319 8.8505-14.611 5.624-16.445-5.8442-0.69833-4.3671-0.61803-4.3278-5.861-2.8717-3.2573 0.90459-3.6791 1.3528-3.1725 3.3714 0.42439 1.6909-0.14774 3.0602-2.0902 5.0027l-2.6745 2.6745 0.847 32.698c1.1817 45.621 1.2337 43.758-1.291 46.282-1.2993 1.2987-3.9014 2.3358-6.6331 2.6437-3.7183 0.4191-4.8786 0.1232-6.714-1.7122zm403.57-17.004c0.54386-0.54386 6.5964-2.5317 13.45-4.4174 16.859-4.6384 25.67-7.9031 37.128-13.756 17.904-9.1455 29.924-20.228 36.642-33.786 3.5508-7.1654 3.6909-7.8488 3.6909-18 0-9.5991-0.25986-11.082-2.8779-16.419-3.5808-7.2998-13.621-18.045-21.033-22.51-10.358-6.2398-17.886-8.4401-29.089-8.5016-8.3374-0.0458-11.193 0.3758-17.176 2.536-9.6743 3.493-19.576 10.27-28.071 19.214-8.4728 8.9197-11.686 14.233-13.233 21.884-2.1536 10.652 2.0104 26.597 8.1054 31.037 2.5903 1.887 2.6859 1.8855 7.2063-0.11409 10.665-4.7178 29.294-26.431 36.147-42.133 5.1708-11.846 4.4997-23.647-1.4522-25.536-2.878-0.91345-2.5105-3.3489 0.62408-4.1356 3.9933-1.0023 8.9164 2.0879 10.791 6.7736 4.5275 11.315-0.65483 30.118-13.163 47.757-10.114 14.263-30.219 31.705-40.279 34.945-7.0749 2.2784-11.953-1.2892-11.985-8.7652-8e-3 -1.8794-1.4116-8.6162-3.1189-14.971-2.5605-9.53-2.987-12.59-2.4349-17.469 0.99972-8.8364 4.0555-15.878 10.74-24.749 10.352-13.739 25.098-24.566 40.299-29.588 11.212-3.7048 27.695-3.9084 38-0.46926 24.712 8.2469 41.772 25.599 45.597 46.379 3.241 17.607-6.2107 36.784-24.991 50.706-8.1598 6.0491-24.177 13.809-36.106 17.492-16.159 4.989-46.398 9.585-43.411 6.598zm-369.84-11.091c-2.5779-1.5015-4.2769-5.4499-6.2051-14.42-0.94581-4.4-3.3061-11.737-5.2451-16.304s-3.27-8.5593-2.9578-8.8715c0.86182-0.86182 8.9306 4.1564 15.578 9.6884 7.5678 6.298 12.705 15.843 11.625 21.599-1.2839 6.8437-7.9156 11.15-12.795 8.3076zm46.557-42.17c-1.7251-1.2375-5.3482-4.95-8.0514-8.25s-8.2068-9.0472-12.23-12.772-7.035-7.0521-6.6921-7.395 4.7956-0.0636 9.8951 0.6205c16.165 2.1687 26.807 6.7754 30.807 13.336 6.3822 10.467-4.0202 21.424-13.728 14.46zm615.08 1.0603c-0.3212-0.51971 0.36128-1.1921 1.5166-1.4943 2.0263-0.52989 2.1006-1.1288 2.1006-16.933v-16.383h-3.5465c-2.8929 0-3.8605 0.55174-5.25 2.9937-2.3314 4.0971-3.5911 3.7679-2.8453-0.74368 0.34091-2.0625 0.62472-4.2 0.63068-4.75 7e-3 -0.62564 5.3455-0.95044 14.261-0.86761l14.25 0.13239 0.62278 4.3676c0.34252 2.4022 0.43125 4.5789 0.19716 4.8371-0.23409 0.25823-1.5594-0.97927-2.9453-2.75-1.9642-2.5097-3.2753-3.2195-5.9472-3.2195h-3.4275v16.094c0 15.36 0.093 16.118 2.0409 16.627 1.1225 0.29354 1.8898 0.98696 1.7052 1.5409-0.43251 1.2975-12.592 1.7966-13.363 0.54846zm25.106 0.34524c-0.99143-0.99143-0.44537-2.1556 1.0111-2.1556 1.2728 0 1.5-2.5035 1.5-16.531 0-13.772-0.25037-16.627-1.5-17.107-0.825-0.31659-1.5-0.97746-1.5-1.4686 0-1.2322 11.734-1.1318 12.5 0.10699 0.33992 0.55-0.0354 1-0.83399 1-2.0213 0-2.666 2.2062-2.666 9.1238v5.9603l15.5-0.58413-0.25174-6.5c-0.16959-4.3786-0.74072-6.8623-1.75-7.6102-2.5779-1.9103-1.6866-2.3898 4.4427-2.3898 5.9308 0 8.8116 1.3084 5.0478 2.2927-1.8808 0.49185-1.9888 1.3914-1.9888 16.579 0 15.255 0.10438 16.114 2.0856 17.175 2.953 1.5804 1.9188 2.0868-4.6622 2.2828-3.8417 0.11444-5.8917-0.24387-6.1714-1.0786-0.23032-0.6875 0.26616-1.25 1.1033-1.25 1.721 0 3.0183-6.3048 2.4746-12.026l-0.33003-3.4735-15.5-0.58413v7.5069c0 6.5862 0.2558 7.6438 2.0856 8.6231 1.1471 0.61391 1.8263 1.3756 1.5092 1.6926-0.71702 0.71702-11.437 1.0864-12.106 0.4171zm36.819-0.47287c-0.28013-0.44952 0.43595-1.0645 1.5913-1.3666 2.0265-0.52995 2.1006-1.1282 2.1006-16.964 0-13.668-0.25096-16.511-1.5-16.99-4.1549-1.5944-0.48544-2.4016 9.7475-2.1444l11.247 0.28275 1.2561 3.8397c1.8389 5.6213 0.64496 6.1608-3.6478 1.6482-3.0737-3.2312-4.4872-3.9879-7.4484-3.9879h-3.6548v7.441c0 4.0925 0.45403 7.7216 1.009 8.0646 1.8167 1.1228 5.0822-0.6223 6.2521-3.3411l1.1464-2.6644 0.35796 3.2277c0.19688 1.7752 0.20073 4.9252 9e-3 7l-0.34939 3.7723-1.1876-2.75c-0.92588-2.144-1.8633-2.75-4.2544-2.75h-3.0668l0.29207 7.75 0.29206 7.75 5 0.3174c4.7075 0.29883 5.1955 0.0941 8.3419-3.5l3.3419-3.8174-0.56904 3.9967c-0.31297 2.1982-1.3341 4.5562-2.2692 5.2399-1.9137 1.3993-23.161 1.3516-24.037-0.0539zm39.416 0.70855c-1.2356-1.2356-0.80702-2.1364 1.2754-2.681 1.8921-0.49479 2-1.364 2-16.108 0-14.502-0.13898-15.672-2-16.834-3.4541-2.1572-2.2334-2.7679 5.5321-2.7679 9.456 0 13.905 1.7512 16.09 6.3335 3.4965 7.3322-0.64821 14.268-9.2572 15.49l-4.8648 0.69089-0.31579 4.4124c-0.40645 5.679 0.46694 9.0728 2.3348 9.0728 0.81452 0 1.481 0.45 1.481 1s-1.6875 1.0061-3.75 1.0136c-2.0625 8e-3 -4.6614 0.25857-5.7754 0.55791-1.114 0.29934-2.3515 0.21819-2.75-0.18032zm14.921-19.855c4.2839-3.0006 3.514-13.595-1.1421-15.716-4.5221-2.0604-5.5032-0.63735-5.5032 7.9824 0 4.3256 0.3 8.1647 0.66667 8.5314 1.1077 1.1077 3.7647 0.75327 5.9786-0.79745zm9.8664 19.643c-1.0118-1.0118-0.48258-2.1784 0.98824-2.1784 1.2728 0 1.5-2.5035 1.5-16.531 0-13.772-0.25037-16.627-1.5-17.107-3.6149-1.3872-0.89329-2.3616 6.5957-2.3616 9.1786 0 13.086 1.6109 14.976 6.1739 1.7018 4.1085 0.36799 9.3359-3.0703 12.033l-2.9239 2.2934 4.4251 7.6292c2.4338 4.1961 5.2288 7.9856 6.2111 8.4211 1.4229 0.6309 1.0744 0.91962-1.714 1.4202-1.925 0.34556-4.0863 0.43629-4.8028 0.20164-0.71656-0.23466-3.0553-3.9121-5.1972-8.1721-5.6551-11.248-8-11.649-8-1.3685 0 5.3609 0.31037 6.4643 2.0856 7.4144 1.1471 0.61391 1.8207 1.3811 1.497 1.7049-0.7436 0.7436-10.383 1.116-11.071 0.42772zm15.238-21.815c3.0992-3.409 3.0084-8.696-0.20455-11.909-3.6987-3.6988-6.1543-3.238-6.9036 1.2954-0.8276 5.0069-0.80719 12.751 0.0358 13.594 1.1352 1.1352 4.694-0.36479 7.0723-2.9809zm20.25 20.844c-11.499-6.2938-11.322-28.86 0.28-35.714 3.9596-2.339 10.961-2.126 15.146 0.46071 9.7042 5.9975 10.907 24.484 2.1464 32.975-4.4837 4.3458-12.011 5.3215-17.573 2.2778zm12.983-3.0362c6.8899-6.8899 6.2898-23.398-1.0758-29.596-4.0624-3.4183-7.1342-3.282-10.28 0.456-6.5001 7.7249-5.7211 23.347 1.4659 29.394 3.9386 3.3142 6.3843 3.2514 9.8895-0.25375zm11.555 4.0335c-1.0291-1.0292-0.52674-1.9744 1.3038-2.4531 1.513-0.39566 1.9594-1.8718 2.5-8.2675 0.36198-4.2822 0.65815-11.513 0.65815-16.068 0-7.4035-0.2121-8.349-2-8.9165-3.9003-1.2379-1.9733-2.603 3.25-2.3023l5.25 0.30226 4.6295 13.5c5.3055 15.471 4.3708 15.691 10.647-2.5l3.795-11 3.8196-0.31663c2.1008-0.17415 4.5598-0.0166 5.4645 0.35015 1.3916 0.56416 1.2985 0.80034-0.6052 1.5344-2.2034 0.84965-2.25 1.1989-2.25 16.865 0 15.047 0.1204 16.061 2.028 17.082 3.2757 1.7531 1.5168 2.6134-4.9888 2.44-6.9619-0.18553-8.4706-0.96032-4.6779-2.4023l2.6387-1.0032v-14.025c0-7.7136-0.3596-14.025-0.79911-14.025s-1.3189 1.4625-1.9542 3.25c-0.63532 1.7875-3.0225 8.5375-5.3049 15-2.2824 6.4625-4.5156 11.75-4.9628 11.75-0.44713 0-3.2128-7.0875-6.146-15.75l-5.333-15.75-0.27882 14.474c-0.27054 14.044-0.21113 14.526 2 16.228 1.2534 0.9646 2.0538 1.8027 1.7788 1.8624-2.1352 0.4636-10.033 0.56973-10.462 0.1406zm44.462-0.68323c0-0.70851 0.9-1.5236 2-1.8112 1.895-0.49556 2-1.364 2-16.549 0-15.148-0.1096-16.061-2-16.661-4.0296-1.279-1.8317-2.5 4.5-2.5 6.1139 0 8.3733 1.0672 5 2.3616-1.249 0.4793-1.5 3.322-1.5 16.99 0 16.085 0.044 16.426 2.2063 16.992 3.7971 0.99295 0.8993 2.1497-5.7894 2.3111-4.6485 0.11215-6.4169-0.20019-6.4169-1.1334zm19.25 0.13113c-2.9871-0.97993-3.25-1.4087-3.25-5.3004 0-5.4474 1.5108-6.3644 3.0087-1.826 0.6434 1.9496 2.2731 4.2675 3.6215 5.1511 4.9144 3.22 9.9463-2.2923 7.7621-8.5032-0.5469-1.5549-3.1011-3.8341-6.5658-5.8586-6.3082-3.686-8.5233-7.7876-7.4103-13.721 0.9942-5.2994 4.5569-7.8792 10.69-7.741 2.8586 0.0644 5.4068 0.32642 5.6627 0.58227 0.2558 0.25585 0.652 2.6249 0.8804 5.2646 0.3578 4.1358 0.2379 4.5425-0.8673 2.9411-3.624-5.2512-5.122-6.6417-7.1551-6.6417-3.1076 0-4.6274 1.8487-4.6274 5.6286 0 3.6846 1.7841 5.8366 6.458 7.7894 5.7033 2.383 7.542 5.2339 7.542 11.694 0 10.233-5.4896 13.907-15.75 10.541zm18.168 0.43074c-0.9363-0.93354-0.3057-1.8794 1.5821-2.3731 1.8921-0.49479 2-1.364 2-16.108 0-14.502-0.139-15.672-2-16.834-1.1-0.68696-2-1.5908-2-2.0085s5.1538-0.75945 11.453-0.75945h11.453l1.0414 3.75c1.7598 6.3367 1.2574 6.9833-2.3633 3.0414-3.4199-3.7234-6.8508-5.2689-10.255-4.6196-1.5249 0.29087-1.8788 1.4949-2.1282 7.2394-0.1646 3.7898 0.1 7.2894 0.5871 7.7768 1.4151 1.415 5.9579-0.83225 6.8341-3.3808 0.6268-1.8231 0.9383-1.0481 1.4841 3.6927 0.7981 6.9308 0.1655 8.8661-1.7211 5.2655-1.2089-2.3073-5.6129-4.2044-6.8616-2.9557-0.7047 0.7047-0.6424 11.145 0.083 13.848 0.7135 2.6598 3.2298 3.3944 7.9674 2.3259 3.166-0.71405 4.574-1.896 7.6221-6.3981 1.5367-2.2698 1.9464 0.56442 0.6664 4.61l-1.362 4.3047h-11.832c-6.5077 0-12.02-0.1875-12.25-0.41667zm29.004 6e-3c-0.9399-0.9399-0.3136-1.884 1.5778-2.3787 1.8961-0.49584 2-1.364 2-16.71s-0.1039-16.214-2-16.71c-1.1-0.28766-2-0.97031-2-1.517 0-0.62093 4.108-0.85338 10.945-0.61935 9.1439 0.31297 11.407 0.71666 13.75 2.4526 6.7701 5.016 9.4845 13.307 7.3159 22.347-2.4984 10.414-7.2706 13.435-21.339 13.508-5.4052 0.0278-10.018-0.13945-10.25-0.37168zm19.111-3.286c6.4412-2.9348 9.0786-17.121 4.725-25.415-2.4588-4.6846-7.9774-7.9259-11.843-6.9557l-2.4152 0.60618v14.899c0 8.1945 0.2731 15.611 0.607 16.481 0.7258 1.8915 5.1963 2.0842 8.9262 0.38473zm-1023.8-44.83c-1.4173-1.1149-4.001-4.5161-5.7416-7.5583s-5.7042-8.2786-8.8079-11.636l-5.6433-6.1051 6.5 0.67734c3.575 0.37254 7.6553 0.93283 9.0673 1.2451 2.4679 0.54574 2.6708 0.22553 5.2366-8.2639 4.3545-14.408 5.7538-20.451 6.3869-27.582 0.43742-4.9271 0.98772-6.75 2.0376-6.75 2.2581 0 16.202 5.8143 19.393 8.0865 3.7311 2.6568 3.791 5.6755 0.12858 6.478-1.5125 0.33142-3.2822 0.76424-3.9327 0.96183s-2.8539 2.9725-4.8965 6.1665c-2.0426 3.194-6.2661 9.1822-9.3856 13.307-7.9774 10.549-7.7717 9.6778-3.2083 13.584 5.2273 4.4744 6.8014 8.9768 4.807 13.75-2.409 5.7656-7.3309 7.2656-11.941 3.6392zm142.88-95.16c-0.22934-0.72236-0.94036-3.0139-1.58-5.0924-1.1123-3.6139-1.3121-3.751-4.576-3.1387-2.7367 0.5134-3.4129 0.32101-3.4129-0.97103 0-0.94462 0.82749-1.6113 2-1.6113 2.2674 0 2.3999-0.38425 1.021-2.9607-0.71119-1.3289-0.57441-2.165 0.5-3.0567 0.81345-0.6751 1.5309-0.83485 1.5943-0.35501 0.0634 0.47985 0.17594 1.5474 0.25 2.3724 0.0741 0.825 0.80965 1.5 1.6346 1.5s1.5606-0.675 1.6346-1.5c0.0741-0.825 0.18656-2.0625 0.25-2.75 0.16198-1.7553 3.0582-1.5624 3.7537 0.25 0.31659 0.825 1.7875 1.5 3.2686 1.5 3.2809 0 5.093 1.6521 5.093 4.6433 0 4.0956-6.4518 6.9271-8.9433 3.925-0.98503-1.1869-0.62119-1.4862 2.1276-1.75 2.7853-0.26734 3.3158-0.71823 3.3158-2.8183 0-3.3024-3.2361-3.782-6.7688-1.0032l-2.6516 2.0858 1.9565 3.2087c1.0761 1.7648 1.9582 4.1947 1.9602 5.3997 4e-3 2.5113-1.8024 4.091-2.4274 2.1224zm25.431 7e-3c0-0.64907-2.1375-3.1712-4.75-5.6047l-4.75-4.4246 4.7581-4.1453c2.617-2.2799 4.7545-4.7453 4.75-5.4786-0.0111-1.823 2.417-0.88655 2.7984 1.0792 0.18425 0.94968-1.5115 2.831-4.25 4.7152-2.5061 1.7243-4.5566 3.4805-4.5566 3.9028s1.7527 1.7529 3.8949 2.9569c2.1422 1.204 4.1672 2.8986 4.5 3.7659 1.0266 2.6752 0.67413 4.4133-0.8949 4.4133-0.825 0-1.5-0.53105-1.5-1.1801zm16.993-0.32836c-0.76122-0.91721-1.0298-2.877-0.68532-5 0.64716-3.988 0.60377-4.0142-3.3006-1.9952-4.6646 2.4122-4.7322-0.18376-0.10796-4.142 4.301-3.6815 5.1136-5.3544 2.6009-5.3544-0.825 0-1.5-0.675-1.5-1.5s0.7875-1.5062 1.75-1.5137c0.9625-7e-3 2.7625-0.28499 4-0.61663 3.4061-0.9128 2.8987 2.3554-1 6.4405l-3.25 3.4054 3.5-0.7743c5.2359-1.1583 7.2501-1.0779 7.7321 0.30866 0.28489 0.8195-0.60275 1.25-2.5774 1.25-5.7174 0-8.5261 6.1479-3.6548 8 1.375 0.52277 2.5 1.4116 2.5 1.9752 0 1.5817-4.6003 1.2113-6.007-0.48372zm21.06-4.2488-5.4468-5.522 4.6968-3.9644c2.5832-2.1804 4.6968-4.5926 4.6968-5.3604 0-1.747 1.4169-1.8034 2.8204-0.11239 1.3688 1.6494 0.6278 2.6206-4.5704 5.99-4.6739 3.0296-5.2344 4.2792-2.3325 5.2003 3.6072 1.1449 7.0825 4.6281 7.0825 7.0988 0 1.3351-0.3375 2.3745-0.75 2.3098s-3.201-2.6025-6.1968-5.6396z"/>
</svg>
